<svg xmlns="http://www.w3.org/2000/svg" width="88.762" height="101.442" viewBox="0 0 88.762 101.442">
  <path id="Icon_awesome-calendar-check" data-name="Icon awesome-calendar-check" d="M86.384,31.7H2.378A2.378,2.378,0,0,1,0,29.323V22.19a9.51,9.51,0,0,1,9.51-9.51h9.51V2.378A2.378,2.378,0,0,1,21.4,0h7.925A2.378,2.378,0,0,1,31.7,2.378v10.3H57.061V2.378A2.378,2.378,0,0,1,59.439,0h7.925a2.378,2.378,0,0,1,2.378,2.378v10.3h9.51a9.51,9.51,0,0,1,9.51,9.51v7.133A2.378,2.378,0,0,1,86.384,31.7ZM2.378,38.041H86.384a2.378,2.378,0,0,1,2.378,2.378V91.932a9.51,9.51,0,0,1-9.51,9.51H9.51A9.51,9.51,0,0,1,0,91.932V40.418A2.378,2.378,0,0,1,2.378,38.041Zm66.036,19.01-5.581-5.626a2.377,2.377,0,0,0-3.362-.013L38.461,72.251l-9.11-9.184a2.378,2.378,0,0,0-3.362-.013l-5.626,5.581A2.377,2.377,0,0,0,20.349,72L36.714,88.5a2.377,2.377,0,0,0,3.362.013L68.4,60.413a2.377,2.377,0,0,0,.013-3.362Z" fill="#88b950"/>
</svg>
