<svg xmlns="http://www.w3.org/2000/svg" width="148.516" height="99.01" viewBox="0 0 148.516 99.01">
  <path id="FontAwsome_folder-open_" data-name="FontAwsome (folder-open)" d="M147.663,122.811l-18.674,32.012a16.5,16.5,0,0,1-14.254,8.187H11.609A6.188,6.188,0,0,1,6.264,153.7l18.674-32.012a16.5,16.5,0,0,1,14.254-8.187H142.318A6.188,6.188,0,0,1,147.663,122.811ZM39.192,105.254h84.571V92.878A12.376,12.376,0,0,0,111.387,80.5H70.132L53.631,64H12.376A12.376,12.376,0,0,0,0,76.376v71.691l17.811-30.533A24.837,24.837,0,0,1,39.192,105.254Z" transform="translate(0 -64)" fill="#4380b9"/>
</svg>
