<svg xmlns="http://www.w3.org/2000/svg" width="44" height="44" viewBox="0 0 44 44">
  <g id="Group_816" data-name="Group 816" transform="translate(-663 -1100)">
    <rect id="Rectangle_404" data-name="Rectangle 404" width="44" height="44" rx="22" transform="translate(663 1100)" fill="#1a62a6"/>
    <path id="Icon_awesome-facebook" data-name="Icon awesome-facebook" d="M29.311,14.937a14.374,14.374,0,1,0-16.62,14.2V19.092H9.039V14.937h3.651V11.77c0-3.6,2.145-5.592,5.429-5.592a22.121,22.121,0,0,1,3.218.281V9.994H19.525a2.078,2.078,0,0,0-2.342,2.245v2.7h3.986l-.638,4.155H17.182V29.137A14.379,14.379,0,0,0,29.311,14.937Z" transform="translate(670.388 1107.15)" fill="#fff"/>
  </g>
</svg>
