<svg xmlns="http://www.w3.org/2000/svg" width="27.094" height="21.675" viewBox="0 0 27.094 21.675">
  <path id="Icon_awesome-chalkboard-teacher" data-name="Icon awesome-chalkboard-teacher" d="M8.805,14.9a.968.968,0,0,0-.3.046,5.584,5.584,0,0,1-1.733.293,5.589,5.589,0,0,1-1.734-.293.966.966,0,0,0-.3-.046A4.742,4.742,0,0,0,0,19.669a2.027,2.027,0,0,0,2.032,2.006h9.483a2.027,2.027,0,0,0,2.032-2.006A4.742,4.742,0,0,0,8.805,14.9ZM6.773,13.547A4.064,4.064,0,1,0,2.709,9.483,4.064,4.064,0,0,0,6.773,13.547ZM25.062,0H8.805A2.069,2.069,0,0,0,6.773,2.1V4.064a5.357,5.357,0,0,1,2.709.754V2.709h14.9V14.9H21.675V12.192H16.256V14.9H13.029a5.4,5.4,0,0,1,1.68,2.709H25.062a2.069,2.069,0,0,0,2.032-2.1V2.1A2.069,2.069,0,0,0,25.062,0Z" transform="translate(0)" fill="#4380b9"/>
</svg>
