<svg xmlns="http://www.w3.org/2000/svg" width="27.407" height="27.407" viewBox="0 0 27.407 27.407">
  <path id="Icon_awesome-info-circle" data-name="Icon awesome-info-circle" d="M14.266.563a13.7,13.7,0,1,0,13.7,13.7A13.706,13.706,0,0,0,14.266.563Zm0,6.078a2.321,2.321,0,1,1-2.321,2.321A2.321,2.321,0,0,1,14.266,6.641ZM17.36,20.676a.663.663,0,0,1-.663.663H11.835a.663.663,0,0,1-.663-.663V19.35a.663.663,0,0,1,.663-.663H12.5V15.15h-.663a.663.663,0,0,1-.663-.663V13.161a.663.663,0,0,1,.663-.663h3.536a.663.663,0,0,1,.663.663v5.526H16.7a.663.663,0,0,1,.663.663Z" transform="translate(-0.563 -0.563)" fill="#4380b9"/>
</svg>
