<svg xmlns="http://www.w3.org/2000/svg" width="44" height="44" viewBox="0 0 44 44">
  <g id="Group_819" data-name="Group 819" transform="translate(-663 -1100)">
    <rect id="Rectangle_404" data-name="Rectangle 404" width="44" height="44" rx="22" transform="translate(663 1100)" fill="#bc2a8d"/>
    <path id="Icon_awesome-instagram" data-name="Icon awesome-instagram" d="M12.414,8.286a6.365,6.365,0,1,0,6.365,6.365A6.355,6.355,0,0,0,12.414,8.286Zm0,10.5a4.138,4.138,0,1,1,4.138-4.138,4.146,4.146,0,0,1-4.138,4.138Zm8.11-10.764a1.485,1.485,0,1,1-1.485-1.485A1.481,1.481,0,0,1,20.524,8.025ZM24.74,9.532a7.347,7.347,0,0,0-2.005-5.2,7.4,7.4,0,0,0-5.2-2.005c-2.05-.116-8.193-.116-10.243,0a7.385,7.385,0,0,0-5.2,2,7.371,7.371,0,0,0-2.005,5.2c-.116,2.05-.116,8.193,0,10.243a7.347,7.347,0,0,0,2.005,5.2,7.405,7.405,0,0,0,5.2,2.005c2.05.116,8.193.116,10.243,0a7.347,7.347,0,0,0,5.2-2.005,7.4,7.4,0,0,0,2.005-5.2c.116-2.05.116-8.188,0-10.238ZM22.092,21.969a4.19,4.19,0,0,1-2.36,2.36c-1.634.648-5.512.5-7.318.5s-5.689.144-7.318-.5a4.19,4.19,0,0,1-2.36-2.36c-.648-1.634-.5-5.512-.5-7.318s-.144-5.689.5-7.318A4.19,4.19,0,0,1,5.1,4.973c1.634-.648,5.512-.5,7.318-.5s5.689-.144,7.318.5a4.19,4.19,0,0,1,2.36,2.36c.648,1.634.5,5.512.5,7.318S22.74,20.34,22.092,21.969Z" transform="translate(672.9 1107.349)" fill="#fff"/>
  </g>
</svg>
