<svg xmlns="http://www.w3.org/2000/svg" width="21" height="24" viewBox="0 0 21 24">
  <path id="FontAwsome_book_" data-name="FontAwsome (book)" d="M21,16.875V1.125A1.122,1.122,0,0,0,19.875,0H4.5A4.5,4.5,0,0,0,0,4.5v15A4.5,4.5,0,0,0,4.5,24H19.875A1.122,1.122,0,0,0,21,22.875v-.75a1.134,1.134,0,0,0-.417-.877,10.453,10.453,0,0,1,0-3.5A1.117,1.117,0,0,0,21,16.875ZM6,6.281A.282.282,0,0,1,6.281,6h9.938a.282.282,0,0,1,.281.281v.938a.282.282,0,0,1-.281.281H6.281A.282.282,0,0,1,6,7.219Zm0,3A.282.282,0,0,1,6.281,9h9.938a.282.282,0,0,1,.281.281v.938a.282.282,0,0,1-.281.281H6.281A.282.282,0,0,1,6,10.219ZM17.878,21H4.5a1.5,1.5,0,0,1,0-3H17.878A16.876,16.876,0,0,0,17.878,21Z" fill="#4380b9"/>
</svg>
