<svg xmlns="http://www.w3.org/2000/svg" width="19.755" height="26.34" viewBox="0 0 19.755 26.34">
  <path id="FontAwsome_clipboard-list_" data-name="FontAwsome (clipboard-list)" d="M17.286,3.293H13.17a3.293,3.293,0,1,0-6.585,0H2.469A2.47,2.47,0,0,0,0,5.762V23.871A2.47,2.47,0,0,0,2.469,26.34H17.286a2.47,2.47,0,0,0,2.469-2.469V5.762A2.47,2.47,0,0,0,17.286,3.293ZM4.939,21.813a1.235,1.235,0,1,1,1.235-1.235A1.232,1.232,0,0,1,4.939,21.813Zm0-4.939A1.235,1.235,0,1,1,6.173,15.64,1.232,1.232,0,0,1,4.939,16.874Zm0-4.939A1.235,1.235,0,1,1,6.173,10.7,1.232,1.232,0,0,1,4.939,11.935ZM9.878,2.058A1.235,1.235,0,1,1,8.643,3.293,1.232,1.232,0,0,1,9.878,2.058ZM16.463,20.99a.413.413,0,0,1-.412.412H8.643a.413.413,0,0,1-.412-.412v-.823a.413.413,0,0,1,.412-.412h7.408a.413.413,0,0,1,.412.412Zm0-4.939a.413.413,0,0,1-.412.412H8.643a.413.413,0,0,1-.412-.412v-.823a.413.413,0,0,1,.412-.412h7.408a.413.413,0,0,1,.412.412Zm0-4.939a.413.413,0,0,1-.412.412H8.643a.413.413,0,0,1-.412-.412v-.823a.413.413,0,0,1,.412-.412h7.408a.413.413,0,0,1,.412.412Z" fill="#4380b9"/>
</svg>
