<svg xmlns="http://www.w3.org/2000/svg" width="25.738" height="21.675" viewBox="0 0 25.738 21.675">
  <path id="Icon_awesome-restroom" data-name="Icon awesome-restroom" d="M6.314,5.419A2.709,2.709,0,1,0,3.6,2.709,2.712,2.712,0,0,0,6.314,5.419Zm16.256,0a2.709,2.709,0,1,0-2.709-2.709A2.712,2.712,0,0,0,22.57,5.419Zm5.389,9.589-1.93-7.866a1.392,1.392,0,0,0-1.262-1.024,4.021,4.021,0,0,1-4.4,0A1.392,1.392,0,0,0,19.1,7.142l-1.93,7.866a1.039,1.039,0,0,0,1.046,1.249h2.32v4.4a1.014,1.014,0,0,0,1.016,1.016h2.032A1.014,1.014,0,0,0,24.6,20.659v-4.4h2.32A1.029,1.029,0,0,0,27.96,15.007ZM15.12,0H13.765a.679.679,0,0,0-.677.677V21a.679.679,0,0,0,.677.677H15.12A.679.679,0,0,0,15.8,21V.677A.679.679,0,0,0,15.12,0ZM8.52,6.113a4.013,4.013,0,0,1-4.411,0A2.024,2.024,0,0,0,2.25,8.128v5.757A1.014,1.014,0,0,0,3.266,14.9H3.6v5.757a1.014,1.014,0,0,0,1.016,1.016H8.007a1.014,1.014,0,0,0,1.016-1.016V14.9h.339a1.014,1.014,0,0,0,1.016-1.016V8.128A2.024,2.024,0,0,0,8.52,6.113Z" transform="translate(-2.25)" fill="#4380b9"/>
</svg>
