<svg xmlns="http://www.w3.org/2000/svg" width="44" height="44" viewBox="0 0 44 44">
  <g id="Group_817" data-name="Group 817" transform="translate(-663 -1100)">
    <rect id="Rectangle_404" data-name="Rectangle 404" width="44" height="44" rx="22" transform="translate(663 1100)" fill="#4ea9ff"/>
    <path id="Icon_awesome-twitter" data-name="Icon awesome-twitter" d="M21.89,8.319c.015.217.015.434.015.65A14.13,14.13,0,0,1,7.679,23.2,14.131,14.131,0,0,1,0,20.952a10.345,10.345,0,0,0,1.208.062,10.014,10.014,0,0,0,6.208-2.136A5.009,5.009,0,0,1,2.74,15.41a6.306,6.306,0,0,0,.944.077A5.289,5.289,0,0,0,5,15.317a5,5,0,0,1-4.01-4.908v-.062a5.036,5.036,0,0,0,2.26.635A5.008,5.008,0,0,1,1.7,4.294a14.214,14.214,0,0,0,10.31,5.233,5.645,5.645,0,0,1-.124-1.146A5.005,5.005,0,0,1,20.544,4.96a9.845,9.845,0,0,0,3.174-1.208,4.987,4.987,0,0,1-2.2,2.756A10.024,10.024,0,0,0,24.4,5.734,10.749,10.749,0,0,1,21.89,8.319Z" transform="translate(672.801 1108.711)" fill="#fff"/>
  </g>
</svg>
