<svg xmlns="http://www.w3.org/2000/svg" width="44" height="44" viewBox="0 0 44 44">
  <g id="Group_818" data-name="Group 818" transform="translate(-663 -1100)">
    <rect id="Rectangle_404" data-name="Rectangle 404" width="44" height="44" rx="22" transform="translate(663 1100)" fill="#cf0000"/>
    <path id="Icon_awesome-youtube" data-name="Icon awesome-youtube" d="M28.338,7.566a3.5,3.5,0,0,0-2.464-2.48C23.7,4.5,14.985,4.5,14.985,4.5S6.27,4.5,4.1,5.086a3.5,3.5,0,0,0-2.464,2.48,36.737,36.737,0,0,0-.582,6.752,36.737,36.737,0,0,0,.582,6.752A3.45,3.45,0,0,0,4.1,23.51c2.174.586,10.889.586,10.889.586s8.715,0,10.889-.586a3.45,3.45,0,0,0,2.464-2.44,36.737,36.737,0,0,0,.582-6.752,36.737,36.737,0,0,0-.582-6.752Zm-16.2,10.9V10.174l7.284,4.144-7.284,4.144Z" transform="translate(670.455 1107.702)" fill="#fff"/>
  </g>
</svg>
